<svg width="776" height="475" viewBox="0 0 776 475" fill="none" xmlns="http://www.w3.org/2000/svg">
<g opacity="0.55" clip-path="url(#clip0_361_7598)">
<path d="M390.376 203.287C398.332 216.582 404.758 227.203 411.03 237.864V237.863C431.505 272.733 458.409 302.034 487.171 330.182C513.331 355.787 526.905 385.821 528.009 415.465C529.113 445.106 517.751 474.403 493.952 498.546C462.291 530.658 413.742 542.162 368.601 535.788C323.81 529.464 282.503 505.557 264.441 466.893L264.019 465.977C245.029 424.197 250.575 384.805 277.738 347.925C286.08 336.591 296.078 326.862 306.218 317.219C316.349 307.585 326.628 298.032 335.468 287.086H335.469C355.808 261.857 371.529 233.525 390.376 203.287Z" stroke="url(#paint0_linear_361_7598)" stroke-width="1.04533"/>
<path d="M49.9341 2.06836C88.6374 26.6813 121.322 60.792 138.652 101.038C156.187 141.763 158.014 188.796 134.408 238.701C122.337 264.214 112.868 290.954 108.659 319.185L108.462 320.529C102.094 364.83 115.685 403.709 140.352 439.639C152.278 457.016 163.776 474.649 173.889 493.396C94.3142 451.621 23.3522 402.459 4.12744 306.634L3.68018 304.347L3.31494 302.378C-4.11833 261.05 2.60781 220.434 20.9409 183.85C50.1066 125.621 64.4905 66.5037 49.9341 2.06836Z" stroke="url(#paint1_linear_361_7598)" stroke-width="1.04533"/>
<path d="M728.368 0.621094C721.204 33.3753 718.402 65.897 724.261 98.9971L724.549 100.586C729.302 126.068 740.743 148.651 751.17 171.652H751.171C772.061 217.607 781.744 265.122 770.652 315.387C756.357 380.198 713.593 423.874 661.637 460.179C643.154 473.106 625.5 488.058 602.622 492.895C609.361 475.829 620.677 461.405 631.632 447.098V447.097C654.899 416.594 666.707 385.176 668.943 352.938C671.179 320.706 663.844 287.689 648.881 253.988C638.28 230.113 628.516 206.225 626.075 179.99C619.072 105.004 659.023 54.1079 712.982 10.2148C717.097 6.89597 721.559 4.02471 725.955 0.957031C726.069 0.881344 726.253 0.833826 726.799 0.78125C727.18 0.744515 727.692 0.706151 728.368 0.621094Z" stroke="url(#paint2_linear_361_7598)" stroke-width="1.04533"/>
<path d="M275.831 87.1279C300.397 124.254 312.375 161.806 311.327 196.546C310.283 231.12 296.34 262.947 268.996 288.843L267.683 290.071C239.705 315.961 223.715 344.167 218.457 374.456C213.199 404.74 218.68 437.052 233.546 471.145C234.698 473.784 236.048 476.393 237.378 479.033C238.712 481.679 240.032 484.363 241.144 487.181C243.255 492.528 244.614 498.347 243.877 505.233C203.944 463.818 170.15 420.955 157.805 365.152L157.516 363.824C145.393 307.232 164.945 258.889 203.835 220.16C240.577 183.542 269.642 144.563 275.831 87.1279Z" stroke="url(#paint3_linear_361_7598)" stroke-width="1.04533"/>
<path d="M500.095 87.4797C503.315 100.527 505.522 110.204 508.033 119.531L508.555 121.45C517.091 152.404 532.277 179.344 556.129 201.405V201.404C588.534 231.391 614.14 265.579 621.142 310.715C629.985 367.708 606.711 414.675 574.294 458.609C562.647 474.389 550.648 490.123 530.542 505.112C538.754 483.538 545.42 466.665 551.484 449.909L552.72 446.473C562.326 419.563 564.337 394.18 559.138 370.325C553.94 346.473 541.539 324.184 522.374 303.448V303.447C501.014 280.375 478.406 258.657 470.615 226.662C458.544 177.021 472.784 133.118 500.095 87.4797Z" stroke="url(#paint4_linear_361_7598)" stroke-width="1.04533"/>
</g>
<defs>
<linearGradient id="paint0_linear_361_7598" x1="390.451" y1="202.266" x2="390.451" y2="538" gradientUnits="userSpaceOnUse">
<stop stop-color="white"/>
<stop offset="0.885" stop-color="white" stop-opacity="0"/>
</linearGradient>
<linearGradient id="paint1_linear_361_7598" x1="87.4877" y1="0.441406" x2="87.4877" y2="494.653" gradientUnits="userSpaceOnUse">
<stop stop-color="white"/>
<stop offset="0.885" stop-color="white" stop-opacity="0"/>
</linearGradient>
<linearGradient id="paint2_linear_361_7598" x1="688.579" y1="0" x2="688.579" y2="493.93" gradientUnits="userSpaceOnUse">
<stop stop-color="white"/>
<stop offset="0.885" stop-color="white" stop-opacity="0"/>
</linearGradient>
<linearGradient id="paint3_linear_361_7598" x1="232.667" y1="85.5752" x2="232.667" y2="506.388" gradientUnits="userSpaceOnUse">
<stop stop-color="white"/>
<stop offset="0.885" stop-color="white" stop-opacity="0"/>
</linearGradient>
<linearGradient id="paint4_linear_361_7598" x1="544.659" y1="86.1399" x2="544.659" y2="506.591" gradientUnits="userSpaceOnUse">
<stop stop-color="white"/>
<stop offset="0.885" stop-color="white" stop-opacity="0"/>
</linearGradient>
<clipPath id="clip0_361_7598">
<rect width="776" height="475" fill="white"/>
</clipPath>
</defs>
</svg>
