<svg width="965" height="965" viewBox="0 0 965 965" fill="none" xmlns="http://www.w3.org/2000/svg">
<path d="M492.871 298.856C491.521 301.106 490.404 302.955 489.311 304.811C485.417 311.437 480.304 316.995 474.864 322.314C469.986 327.083 467.475 332.657 467.271 338.134C467.067 343.608 469.166 349.031 473.588 353.513C479.458 359.461 488.489 361.615 496.922 360.425C505.095 359.272 512.589 354.998 516.044 348.154L516.366 347.484C519.888 339.743 518.867 332.464 513.817 325.614V325.613C512.265 323.506 510.4 321.693 508.484 319.873C506.577 318.061 504.614 316.238 502.924 314.148H502.923C499.189 309.52 496.266 304.332 492.871 298.856Z" stroke="url(#paint0_linear_361_7478)"/>
<path d="M665.733 493.028C663.483 491.678 661.634 490.561 659.778 489.468C653.152 485.574 647.594 480.461 642.275 475.021C637.505 470.143 631.932 467.632 626.455 467.428C620.98 467.224 615.558 469.323 611.076 473.746C605.128 479.615 602.974 488.646 604.164 497.08C605.316 505.252 609.591 512.746 616.435 516.202L617.105 516.523C624.846 520.045 632.125 519.025 638.975 513.974L638.976 513.974C641.083 512.422 642.896 510.557 644.716 508.641C646.528 506.734 648.351 504.771 650.441 503.082L650.441 503.081C655.069 499.346 660.256 496.423 665.733 493.028Z" stroke="url(#paint1_linear_361_7478)"/>
<path d="M471.966 665.887C473.315 663.637 474.432 661.789 475.525 659.932C479.42 653.306 484.532 647.748 489.973 642.429C494.85 637.66 497.361 632.086 497.565 626.609C497.769 621.135 495.671 615.712 491.248 611.23C485.379 605.283 476.347 603.128 467.914 604.318C459.741 605.471 452.248 609.745 448.792 616.589L448.471 617.259C444.949 625 445.969 632.279 451.02 639.129L451.02 639.13C452.572 641.237 454.436 643.05 456.353 644.871C458.259 646.682 460.222 648.505 461.912 650.595L461.913 650.595C465.648 655.223 468.571 660.411 471.966 665.887Z" stroke="url(#paint2_linear_361_7478)"/>
<path d="M298.702 472.113C300.952 473.462 302.8 474.579 304.657 475.672C311.283 479.567 316.841 484.679 322.16 490.119C326.929 494.997 332.503 497.508 337.98 497.712C343.454 497.916 348.876 495.818 353.359 491.395C359.306 485.525 361.461 476.494 360.271 468.061C359.118 459.888 354.844 452.395 348 448.939L347.33 448.617C339.589 445.096 332.31 446.116 325.459 451.166L325.458 451.166C323.352 452.718 321.539 454.583 319.718 456.499C317.907 458.406 316.084 460.369 313.994 462.059L313.994 462.06C309.365 465.795 304.178 468.717 298.702 472.113Z" stroke="url(#paint3_linear_361_7478)"/>
<path d="M583.214 330.695C580.921 331.968 579.029 333.011 577.154 334.072C570.469 337.863 563.262 340.12 555.891 342.006C549.282 343.698 544.321 347.27 541.405 351.911C538.492 356.55 537.598 362.295 539.187 368.388C541.297 376.473 548.041 382.855 555.939 386.041C563.593 389.129 572.22 389.174 578.635 384.975L579.248 384.555C586.168 379.613 588.924 372.799 587.976 364.341L587.976 364.34C587.685 361.74 586.977 359.237 586.228 356.702C585.482 354.18 584.694 351.62 584.275 348.965L584.274 348.964C583.354 343.089 583.417 337.135 583.214 330.695Z" stroke="url(#paint4_linear_361_7478)"/>
<path d="M633.892 583.365C632.619 581.072 631.576 579.18 630.515 577.305C626.724 570.62 624.467 563.413 622.581 556.042C620.889 549.433 617.317 544.472 612.676 541.556C608.037 538.642 602.292 537.749 596.199 539.338C588.114 541.447 581.732 548.191 578.546 556.09C575.458 563.744 575.413 572.371 579.612 578.785L580.032 579.399C584.975 586.319 591.788 589.075 600.246 588.126L600.247 588.127C602.848 587.836 605.35 587.128 607.885 586.379C610.407 585.633 612.967 584.844 615.622 584.426L615.623 584.425C621.498 583.505 627.452 583.567 633.892 583.365Z" stroke="url(#paint5_linear_361_7478)"/>
<path d="M381.626 634.047C383.919 632.773 385.811 631.73 387.686 630.669C394.372 626.878 401.578 624.621 408.949 622.735C415.558 621.043 420.52 617.472 423.435 612.83C426.349 608.191 427.242 602.446 425.653 596.353C423.544 588.268 416.8 581.886 408.902 578.7C401.247 575.612 392.621 575.567 386.206 579.766L385.592 580.186C378.672 585.129 375.916 591.942 376.865 600.4L376.864 600.401C377.155 603.002 377.863 605.504 378.613 608.039C379.358 610.561 380.147 613.121 380.565 615.776L380.566 615.777C381.486 621.652 381.424 627.606 381.626 634.047Z" stroke="url(#paint6_linear_361_7478)"/>
<path d="M330.538 381.775C331.812 384.069 332.855 385.961 333.916 387.836C337.707 394.521 339.964 401.728 341.85 409.099C343.542 415.708 347.113 420.669 351.754 423.584C356.393 426.498 362.138 427.392 368.232 425.803C376.317 423.693 382.698 416.949 385.885 409.051C388.973 401.397 389.018 392.77 384.818 386.355L384.399 385.742C379.456 378.821 372.642 376.066 364.184 377.014L364.183 377.014C361.583 377.305 359.08 378.013 356.546 378.762C354.024 379.508 351.464 380.296 348.808 380.715L348.808 380.715C342.932 381.636 336.979 381.573 330.538 381.775Z" stroke="url(#paint7_linear_361_7478)"/>
<path d="M653.223 398.999C650.6 398.956 648.44 398.913 646.286 398.894C638.601 398.834 631.231 397.186 623.904 395.134C617.335 393.294 611.253 393.907 606.407 396.468C601.564 399.029 597.918 403.557 596.247 409.629C594.032 417.686 596.682 426.584 601.928 433.293C607.013 439.794 614.462 444.147 622.117 443.717L622.858 443.661C631.322 442.84 637.116 438.317 640.523 430.518L640.524 430.518C641.572 428.12 642.21 425.599 642.829 423.029C643.444 420.472 644.041 417.861 645.007 415.352L645.006 415.351C647.147 409.803 650.178 404.678 653.223 398.999Z" stroke="url(#paint8_linear_361_7478)"/>
<path d="M565.591 653.378C565.635 650.755 565.678 648.595 565.696 646.441C565.756 638.755 567.404 631.386 569.457 624.059C571.296 617.49 570.684 611.407 568.122 606.562C565.561 601.719 561.033 598.073 554.962 596.402C546.905 594.186 538.006 596.836 531.298 602.083C524.796 607.168 520.444 614.616 520.873 622.271L520.93 623.012C521.75 631.477 526.273 637.27 534.072 640.678L534.073 640.679C536.47 641.727 538.992 642.365 541.561 642.984C544.118 643.599 546.73 644.196 549.238 645.161L549.239 645.161C554.788 647.302 559.913 650.333 565.591 653.378Z" stroke="url(#paint9_linear_361_7478)"/>
<path d="M311.61 565.742C314.233 565.785 316.393 565.828 318.547 565.847C326.232 565.906 333.602 567.555 340.929 569.607C347.498 571.446 353.58 570.834 358.426 568.272C363.269 565.712 366.915 561.183 368.586 555.112C370.801 547.055 368.151 538.156 362.905 531.448C357.82 524.947 350.371 520.594 342.716 521.023L341.975 521.08C333.511 521.901 327.717 526.424 324.31 534.223L324.309 534.223C323.261 536.621 322.623 539.142 322.004 541.712C321.389 544.269 320.792 546.88 319.826 549.389L319.827 549.39C317.686 554.938 314.655 560.063 311.61 565.742Z" stroke="url(#paint10_linear_361_7478)"/>
<path d="M398.847 311.763C398.803 314.387 398.76 316.546 398.742 318.7C398.682 326.386 397.034 333.756 394.981 341.082C393.142 347.651 393.754 353.734 396.316 358.579C398.876 363.422 403.405 367.069 409.476 368.739C417.533 370.955 426.432 368.305 433.14 363.058C439.641 357.973 443.994 350.525 443.565 342.87L443.508 342.129C442.688 333.664 438.165 327.871 430.366 324.463L430.365 324.462C427.968 323.414 425.446 322.776 422.877 322.158C420.319 321.542 417.708 320.945 415.2 319.98L415.199 319.98C409.65 317.84 404.525 314.809 398.847 311.763Z" stroke="url(#paint11_linear_361_7478)"/>
<path d="M679.313 308.771C675.494 309.728 672.379 310.495 669.282 311.296C658.61 314.067 647.779 314.521 636.841 314.398C626.981 314.287 618.701 317.418 612.876 322.824C607.053 328.229 603.649 335.938 603.589 345.052C603.509 357.158 610.551 368.594 620.38 375.993C630.21 383.393 642.726 386.679 653.528 382.637C665.064 378.316 671.48 369.804 673.321 357.626C673.889 353.883 673.837 350.124 673.739 346.324C673.648 342.773 673.517 339.181 673.835 335.592L673.905 334.875C674.824 326.275 677.171 317.945 679.313 308.771Z" stroke="url(#paint12_linear_361_7478)"/>
<path d="M751.271 429.93C747.485 428.849 744.403 427.956 741.321 427.102C730.693 424.165 721.086 419.143 711.676 413.567C703.191 408.541 694.456 407.113 686.708 408.882C678.963 410.651 672.16 415.626 667.551 423.489C661.429 433.932 661.809 447.358 666.622 458.679C671.436 470.003 680.632 479.107 692.007 481.007C704.158 483.033 713.97 478.869 721.654 469.244C724.017 466.286 725.852 463.005 727.667 459.665C729.364 456.545 731.046 453.368 733.116 450.419L733.535 449.833C738.631 442.844 744.828 436.805 751.271 429.93Z" stroke="url(#paint13_linear_361_7478)"/>
<path d="M732.73 565.207C729.991 562.377 727.769 560.063 725.527 557.782C717.791 549.925 711.983 540.772 706.621 531.238C701.786 522.643 694.935 517.039 687.341 514.697C679.748 512.357 671.37 513.264 663.447 517.768C652.923 523.752 646.54 535.568 645.047 547.779C643.554 559.993 646.966 572.475 655.867 579.809C665.378 587.639 675.957 588.939 687.424 584.445C690.949 583.065 694.179 581.14 697.421 579.156C700.45 577.302 703.496 575.392 706.763 573.873L707.419 573.575C715.326 570.071 723.713 567.939 732.73 565.207Z" stroke="url(#paint14_linear_361_7478)"/>
<path d="M655.662 679.31C654.705 675.49 653.938 672.375 653.136 669.278C650.366 658.606 649.912 647.775 650.035 636.838C650.146 626.977 647.015 618.698 641.609 612.873C636.204 607.049 628.495 603.646 619.38 603.585C607.275 603.505 595.839 610.547 588.44 620.376C581.04 630.207 577.754 642.723 581.796 653.524C586.117 665.06 594.629 671.476 606.807 673.318C610.55 673.885 614.309 673.833 618.109 673.736C621.66 673.645 625.252 673.514 628.841 673.832L629.558 673.901C638.158 674.82 646.487 677.168 655.662 679.31Z" stroke="url(#paint15_linear_361_7478)"/>
<path d="M285.676 655.81C289.496 654.854 292.611 654.086 295.707 653.285C306.38 650.514 317.21 650.06 328.148 650.184C338.009 650.294 346.288 647.163 352.113 641.757C357.936 636.352 361.34 628.643 361.401 619.529C361.48 607.423 354.438 595.987 344.61 588.588C334.779 581.188 322.263 577.902 311.461 581.944C299.925 586.265 293.51 594.778 291.668 606.955C291.101 610.698 291.153 614.457 291.25 618.257C291.341 621.808 291.472 625.4 291.154 628.989L291.084 629.706C290.166 638.306 287.818 646.636 285.676 655.81Z" stroke="url(#paint16_linear_361_7478)"/>
<path d="M308.616 285.676C309.573 289.496 310.34 292.611 311.141 295.707C313.912 306.38 314.366 317.21 314.243 328.148C314.132 338.009 317.263 346.288 322.669 352.113C328.074 357.936 335.783 361.34 344.897 361.401C357.003 361.48 368.439 354.438 375.837 344.61C383.238 334.779 386.524 322.263 382.482 311.461C378.16 299.925 369.648 293.51 357.471 291.668C353.728 291.1 349.969 291.153 346.169 291.25C342.618 291.341 339.026 291.472 335.437 291.154L334.72 291.084C326.12 290.166 317.79 287.818 308.616 285.676Z" stroke="url(#paint17_linear_361_7478)"/>
<path d="M534.504 751.267C535.586 747.481 536.479 744.4 537.333 741.317C540.27 730.689 545.292 721.083 550.868 711.672C555.894 703.188 557.322 694.453 555.553 686.705C553.784 678.959 548.809 672.157 540.946 667.547C530.503 661.426 517.077 661.806 505.756 666.619C494.432 671.432 485.328 680.629 483.427 692.004C481.402 704.155 485.566 713.967 495.191 721.651C498.149 724.014 501.43 725.848 504.77 727.664C507.89 729.36 511.067 731.043 514.016 733.113L514.602 733.532C521.59 738.627 527.63 744.825 534.504 751.267Z" stroke="url(#paint18_linear_361_7478)"/>
<path d="M213.715 534.649C217.501 535.731 220.582 536.624 223.665 537.478C234.293 540.415 243.899 545.437 253.31 551.013C261.794 556.039 270.529 557.467 278.277 555.698C286.023 553.929 292.825 548.954 297.435 541.091C303.556 530.648 303.176 517.222 298.363 505.901C293.55 494.577 284.354 485.473 272.978 483.572C260.827 481.547 251.015 485.711 243.331 495.336C240.968 498.294 239.134 501.575 237.318 504.915C235.622 508.035 233.939 511.212 231.869 514.161L231.45 514.747C226.355 521.735 220.157 527.775 213.715 534.649Z" stroke="url(#paint19_linear_361_7478)"/>
<path d="M429.785 213.721C428.704 217.507 427.811 220.588 426.956 223.671C424.02 234.299 418.998 243.905 413.422 253.316C408.396 261.8 406.967 270.536 408.737 278.283C410.506 286.029 415.481 292.831 423.343 297.441C433.787 303.563 447.212 303.182 458.534 298.37C469.858 293.556 478.962 284.36 480.862 272.984C482.888 260.833 478.724 251.021 469.099 243.337C466.141 240.974 462.859 239.14 459.52 237.324C456.399 235.628 453.223 233.945 450.274 231.875L449.687 231.456C442.699 226.361 436.659 220.163 429.785 213.721Z" stroke="url(#paint20_linear_361_7478)"/>
<path d="M399.219 732.726C402.048 729.988 404.362 727.766 406.643 725.523C414.5 717.788 423.653 711.979 433.187 706.617C441.782 701.783 447.387 694.932 449.728 687.337C452.069 679.745 451.162 671.367 446.657 663.443C440.674 652.92 428.857 646.537 416.646 645.044C404.432 643.55 391.95 646.963 384.616 655.864C376.787 665.374 375.487 675.954 379.98 687.421C381.361 690.946 383.285 694.175 385.27 697.417C387.124 700.447 389.033 703.492 390.552 706.759L390.851 707.416C394.355 715.322 396.487 723.71 399.219 732.726Z" stroke="url(#paint21_linear_361_7478)"/>
<path d="M232.26 399.37C234.998 402.2 237.22 404.514 239.462 406.795C247.198 414.652 253.006 423.805 258.368 433.339C263.203 441.933 270.054 447.538 277.648 449.88C285.241 452.22 293.619 451.313 301.543 446.809C312.066 440.825 318.449 429.008 319.942 416.797C321.435 404.584 318.023 392.101 309.122 384.768C299.612 376.938 289.032 375.638 277.565 380.132C274.04 381.512 270.81 383.437 267.568 385.421C264.539 387.275 261.494 389.185 258.226 390.704L257.57 391.002C249.663 394.506 241.276 396.638 232.26 399.37Z" stroke="url(#paint22_linear_361_7478)"/>
<path d="M565.063 232.26C562.233 234.998 559.919 237.22 557.638 239.462C549.781 247.198 540.628 253.007 531.094 258.368C522.499 263.203 516.894 270.054 514.553 277.649C512.212 285.241 513.119 293.619 517.624 301.543C523.607 312.066 535.424 318.449 547.635 319.942C559.849 321.435 572.331 318.023 579.665 309.122C587.495 299.612 588.795 289.032 584.301 277.565C582.921 274.04 580.996 270.811 579.012 267.568C577.158 264.539 575.248 261.494 573.729 258.227L573.431 257.57C569.926 249.663 567.795 241.276 565.063 232.26Z" stroke="url(#paint23_linear_361_7478)"/>
<path d="M814.81 309.202C809.036 309.219 804.364 309.213 799.708 309.262C784.994 309.431 770.78 306.739 756.624 303.176L753.794 302.452C740.135 298.91 727.544 300.41 717.574 305.93C707.918 311.275 700.685 320.411 697.315 332.477L697.001 333.654C692.724 350.465 698.587 368.777 709.691 382.424C720.623 395.859 736.556 404.68 752.724 403.133L753.494 403.051C771.026 401.01 782.884 391.37 789.632 375.077C791.707 370.071 792.926 364.831 794.092 359.538C795.256 354.257 796.368 348.916 798.234 343.772L798.235 343.771C802.483 332.097 808.644 321.306 814.81 309.202Z" stroke="url(#paint24_linear_361_7478)"/>
<path d="M872.988 501.771C867.979 498.899 863.936 496.558 859.878 494.272C847.051 487.062 836.088 477.624 825.61 467.46L823.521 465.418C813.463 455.521 801.809 450.524 790.415 450.319C779.38 450.121 768.547 454.416 759.597 463.18L758.736 464.043C746.627 476.463 742.548 495.253 745.34 512.623C748.09 529.725 757.479 545.331 772.254 552.075L772.961 552.389C789.165 559.387 804.254 556.968 818.245 546.232C822.545 542.934 826.22 539.005 829.877 535.005C833.525 531.013 837.16 526.944 841.348 523.422L841.349 523.422C850.865 515.435 861.596 509.17 872.988 501.771Z" stroke="url(#paint25_linear_361_7478)"/>
<path d="M800.938 682.898C798.036 677.906 795.705 673.857 793.334 669.849C785.83 657.191 781.055 643.536 777.063 629.495L776.274 626.681C772.513 613.082 764.918 602.927 755.153 597.053C745.39 591.18 733.421 589.561 720.857 593.098C704.159 597.8 691.232 612.033 684.965 628.472C678.796 644.658 679.124 662.867 688.548 676.095L689.003 676.72C699.537 690.883 713.814 696.333 731.298 694.03C736.672 693.324 741.819 691.76 746.986 690.123C752.141 688.491 757.323 686.784 762.711 685.828L762.712 685.828C774.946 683.67 787.372 683.61 800.938 682.898Z" stroke="url(#paint26_linear_361_7478)"/>
<path d="M655.025 814.617C655.008 808.842 655.014 804.171 654.964 799.514C654.795 784.8 657.487 770.586 661.051 756.43L661.774 753.6C665.317 739.941 663.817 727.35 658.297 717.38C652.951 707.724 643.816 700.491 631.75 697.121L630.573 696.807C613.762 692.53 595.45 698.393 581.803 709.497C568.367 720.429 559.547 736.362 561.094 752.53L561.176 753.3C563.217 770.832 572.857 782.69 589.15 789.438C594.156 791.513 599.396 792.732 604.689 793.898C609.969 795.062 615.311 796.174 620.455 798.041L620.455 798.041C632.13 802.289 642.921 808.45 655.025 814.617Z" stroke="url(#paint27_linear_361_7478)"/>
<path d="M150.335 655.233C156.109 655.216 160.781 655.222 165.438 655.173C180.151 655.003 194.365 657.695 208.521 661.259L211.352 661.983C225.01 665.525 237.601 664.025 247.571 658.505C257.227 653.16 264.461 644.024 267.83 631.958L268.144 630.781C272.421 613.97 266.559 595.658 255.455 582.011C244.523 568.575 228.589 559.755 212.421 561.302L211.652 561.384C194.12 563.425 182.262 573.065 175.514 589.358C173.439 594.364 172.22 599.604 171.053 604.897C169.89 610.177 168.777 615.519 166.911 620.663L166.91 620.663C162.662 632.338 156.501 643.129 150.335 655.233Z" stroke="url(#paint28_linear_361_7478)"/>
<path d="M308.997 150.142C309.014 155.916 309.008 160.588 309.058 165.244C309.227 179.958 306.535 194.172 302.972 208.328L302.248 211.158C298.706 224.817 300.206 237.408 305.725 247.378C311.071 257.034 320.207 264.268 332.272 267.637L333.45 267.951C350.261 272.228 368.573 266.365 382.219 255.262C395.655 244.33 404.475 228.396 402.929 212.228L402.846 211.459C400.806 193.927 391.166 182.068 374.873 175.32C369.866 173.245 364.627 172.026 359.334 170.86C354.053 169.696 348.711 168.584 343.568 166.718L343.567 166.717C331.892 162.469 321.101 156.308 308.997 150.142Z" stroke="url(#paint29_linear_361_7478)"/>
<path d="M462.45 872.794C465.323 867.785 467.664 863.742 469.949 859.684C477.159 846.858 486.598 835.894 496.762 825.416L498.804 823.327C508.701 813.269 513.697 801.615 513.902 790.221C514.101 779.186 509.806 768.353 501.041 759.403L500.179 758.542C487.758 746.433 468.969 742.354 451.598 745.147C434.496 747.896 418.891 757.285 412.147 772.06L411.833 772.768C404.834 788.971 407.254 804.061 417.99 818.051C421.288 822.352 425.216 826.027 429.217 829.683C433.208 833.331 437.278 836.966 440.8 841.154L440.8 841.155C448.786 850.671 455.051 861.402 462.45 872.794Z" stroke="url(#paint30_linear_361_7478)"/>
<path d="M92.1531 462.66C97.1624 465.533 101.205 467.874 105.263 470.159C118.09 477.369 129.053 486.808 139.531 496.972L141.62 499.014C151.678 508.911 163.332 513.907 174.726 514.112C185.761 514.311 196.594 510.016 205.545 501.251L206.405 500.389C218.515 487.968 222.593 469.179 219.801 451.808C217.051 434.706 207.663 419.101 192.887 412.357L192.18 412.043C175.976 405.044 160.887 407.464 146.896 418.2C142.596 421.498 138.921 425.426 135.264 429.427C131.616 433.418 127.982 437.488 123.794 441.01L123.793 441.01C114.276 448.996 103.545 455.261 92.1531 462.66Z" stroke="url(#paint31_linear_361_7478)"/>
<path d="M501.573 91.9639C498.7 96.9732 496.359 101.016 494.074 105.074C486.864 117.9 477.425 128.864 467.261 139.342L465.219 141.431C455.322 151.489 450.326 163.143 450.121 174.537C449.922 185.572 454.217 196.405 462.982 205.355L463.844 206.216C476.265 218.325 495.054 222.404 512.425 219.612C529.526 216.862 545.132 207.473 551.876 192.698L552.19 191.991C559.189 175.787 556.769 160.698 546.033 146.707C542.735 142.407 538.807 138.732 534.806 135.075C530.815 131.427 526.745 127.792 523.223 123.604L523.223 123.603C515.237 114.087 508.972 103.356 501.573 91.9639Z" stroke="url(#paint32_linear_361_7478)"/>
<path d="M281.332 800.745C286.324 797.843 290.373 795.512 294.381 793.141C307.038 785.637 320.694 780.862 334.735 776.87L337.548 776.081C351.148 772.32 361.302 764.725 367.177 754.96C372.866 745.503 374.563 733.974 371.448 721.84L371.131 720.664C366.429 703.966 352.196 691.039 335.757 684.772C319.572 678.603 301.363 678.931 288.134 688.354L287.509 688.81C273.346 699.343 267.897 713.621 270.199 731.105C270.905 736.479 272.47 741.625 274.106 746.793C275.739 751.948 277.446 757.13 278.402 762.518L278.401 762.519C280.56 774.753 280.62 787.179 281.332 800.745Z" stroke="url(#paint33_linear_361_7478)"/>
<path d="M164.207 281.534C167.11 286.526 169.44 290.575 171.812 294.583C179.315 307.241 184.09 320.896 188.082 334.937L188.871 337.751C192.632 351.35 200.227 361.505 209.992 367.379C219.449 373.068 230.978 374.765 243.112 371.65L244.288 371.334C260.986 366.632 273.913 352.399 280.18 335.96C286.349 319.774 286.021 301.565 276.597 288.337L276.142 287.711C265.608 273.549 251.331 268.099 233.847 270.402C228.473 271.108 223.326 272.672 218.159 274.308C213.004 275.941 207.822 277.648 202.434 278.604L202.433 278.603C190.199 280.762 177.773 280.822 164.207 281.534Z" stroke="url(#paint34_linear_361_7478)"/>
<path d="M682.692 164.01C677.7 166.912 673.651 169.243 669.643 171.614C656.985 179.117 643.33 183.893 629.289 187.885L626.475 188.673C612.876 192.435 602.721 200.029 596.847 209.794C591.157 219.252 589.461 230.781 592.576 242.914L592.892 244.091C597.594 260.788 611.827 273.715 628.266 279.982C644.452 286.152 662.661 285.824 675.889 276.4L676.515 275.944C690.677 265.411 696.127 251.133 693.824 233.649C693.118 228.276 691.554 223.129 689.917 217.962C688.285 212.807 686.577 207.624 685.622 202.237L685.622 202.236C683.464 190.001 683.404 177.575 682.692 164.01Z" stroke="url(#paint35_linear_361_7478)"/>
<defs>
<linearGradient id="paint0_linear_361_7478" x1="492.851" y1="297.891" x2="492.851" y2="361.24" gradientUnits="userSpaceOnUse">
<stop stop-color="white"/>
<stop offset="1" stop-color="white" stop-opacity="0"/>
</linearGradient>
<linearGradient id="paint1_linear_361_7478" x1="666.698" y1="493.009" x2="603.349" y2="493.009" gradientUnits="userSpaceOnUse">
<stop stop-color="white"/>
<stop offset="1" stop-color="white" stop-opacity="0"/>
</linearGradient>
<linearGradient id="paint2_linear_361_7478" x1="471.985" y1="666.852" x2="471.985" y2="603.503" gradientUnits="userSpaceOnUse">
<stop stop-color="white"/>
<stop offset="1" stop-color="white" stop-opacity="0"/>
</linearGradient>
<linearGradient id="paint3_linear_361_7478" x1="297.737" y1="472.132" x2="361.086" y2="472.132" gradientUnits="userSpaceOnUse">
<stop stop-color="white"/>
<stop offset="1" stop-color="white" stop-opacity="0"/>
</linearGradient>
<linearGradient id="paint4_linear_361_7478" x1="583.68" y1="329.849" x2="552.006" y2="384.711" gradientUnits="userSpaceOnUse">
<stop stop-color="white"/>
<stop offset="1" stop-color="white" stop-opacity="0"/>
</linearGradient>
<linearGradient id="paint5_linear_361_7478" x1="634.738" y1="583.831" x2="579.876" y2="552.157" gradientUnits="userSpaceOnUse">
<stop stop-color="white"/>
<stop offset="1" stop-color="white" stop-opacity="0"/>
</linearGradient>
<linearGradient id="paint6_linear_361_7478" x1="381.16" y1="634.892" x2="412.835" y2="580.03" gradientUnits="userSpaceOnUse">
<stop stop-color="white"/>
<stop offset="1" stop-color="white" stop-opacity="0"/>
</linearGradient>
<linearGradient id="paint7_linear_361_7478" x1="329.693" y1="381.31" x2="384.555" y2="412.984" gradientUnits="userSpaceOnUse">
<stop stop-color="white"/>
<stop offset="1" stop-color="white" stop-opacity="0"/>
</linearGradient>
<linearGradient id="paint8_linear_361_7478" x1="654.049" y1="398.5" x2="599.187" y2="430.174" gradientUnits="userSpaceOnUse">
<stop stop-color="white"/>
<stop offset="1" stop-color="white" stop-opacity="0"/>
</linearGradient>
<linearGradient id="paint9_linear_361_7478" x1="566.09" y1="654.204" x2="534.416" y2="599.342" gradientUnits="userSpaceOnUse">
<stop stop-color="white"/>
<stop offset="1" stop-color="white" stop-opacity="0"/>
</linearGradient>
<linearGradient id="paint10_linear_361_7478" x1="310.784" y1="566.241" x2="365.646" y2="534.566" gradientUnits="userSpaceOnUse">
<stop stop-color="white"/>
<stop offset="1" stop-color="white" stop-opacity="0"/>
</linearGradient>
<linearGradient id="paint11_linear_361_7478" x1="398.348" y1="310.937" x2="430.022" y2="365.799" gradientUnits="userSpaceOnUse">
<stop stop-color="white"/>
<stop offset="1" stop-color="white" stop-opacity="0"/>
</linearGradient>
<linearGradient id="paint12_linear_361_7478" x1="679.977" y1="308.07" x2="615.542" y2="372.506" gradientUnits="userSpaceOnUse">
<stop stop-color="white"/>
<stop offset="1" stop-color="white" stop-opacity="0"/>
</linearGradient>
<linearGradient id="paint13_linear_361_7478" x1="752.196" y1="429.656" x2="664.176" y2="453.241" gradientUnits="userSpaceOnUse">
<stop stop-color="white"/>
<stop offset="1" stop-color="white" stop-opacity="0"/>
</linearGradient>
<linearGradient id="paint14_linear_361_7478" x1="733.668" y1="565.432" x2="645.648" y2="541.847" gradientUnits="userSpaceOnUse">
<stop stop-color="white"/>
<stop offset="1" stop-color="white" stop-opacity="0"/>
</linearGradient>
<linearGradient id="paint15_linear_361_7478" x1="656.362" y1="679.974" x2="591.927" y2="615.538" gradientUnits="userSpaceOnUse">
<stop stop-color="white"/>
<stop offset="1" stop-color="white" stop-opacity="0"/>
</linearGradient>
<linearGradient id="paint16_linear_361_7478" x1="285.012" y1="656.511" x2="349.448" y2="592.075" gradientUnits="userSpaceOnUse">
<stop stop-color="white"/>
<stop offset="1" stop-color="white" stop-opacity="0"/>
</linearGradient>
<linearGradient id="paint17_linear_361_7478" x1="307.916" y1="285.012" x2="372.351" y2="349.447" gradientUnits="userSpaceOnUse">
<stop stop-color="white"/>
<stop offset="1" stop-color="white" stop-opacity="0"/>
</linearGradient>
<linearGradient id="paint18_linear_361_7478" x1="534.779" y1="752.193" x2="511.194" y2="664.172" gradientUnits="userSpaceOnUse">
<stop stop-color="white"/>
<stop offset="1" stop-color="white" stop-opacity="0"/>
</linearGradient>
<linearGradient id="paint19_linear_361_7478" x1="212.789" y1="534.924" x2="300.81" y2="511.339" gradientUnits="userSpaceOnUse">
<stop stop-color="white"/>
<stop offset="1" stop-color="white" stop-opacity="0"/>
</linearGradient>
<linearGradient id="paint20_linear_361_7478" x1="429.51" y1="212.796" x2="453.095" y2="300.816" gradientUnits="userSpaceOnUse">
<stop stop-color="white"/>
<stop offset="1" stop-color="white" stop-opacity="0"/>
</linearGradient>
<linearGradient id="paint21_linear_361_7478" x1="398.994" y1="733.665" x2="422.579" y2="645.645" gradientUnits="userSpaceOnUse">
<stop stop-color="white"/>
<stop offset="1" stop-color="white" stop-opacity="0"/>
</linearGradient>
<linearGradient id="paint22_linear_361_7478" x1="231.321" y1="399.145" x2="319.341" y2="422.73" gradientUnits="userSpaceOnUse">
<stop stop-color="white"/>
<stop offset="1" stop-color="white" stop-opacity="0"/>
</linearGradient>
<linearGradient id="paint23_linear_361_7478" x1="565.287" y1="231.321" x2="541.702" y2="319.341" gradientUnits="userSpaceOnUse">
<stop stop-color="white"/>
<stop offset="1" stop-color="white" stop-opacity="0"/>
</linearGradient>
<linearGradient id="paint24_linear_361_7478" x1="815.621" y1="308.673" x2="704.353" y2="375.805" gradientUnits="userSpaceOnUse">
<stop stop-color="white"/>
<stop offset="1" stop-color="white" stop-opacity="0"/>
</linearGradient>
<linearGradient id="paint25_linear_361_7478" x1="873.954" y1="501.719" x2="744.027" y2="504.222" gradientUnits="userSpaceOnUse">
<stop stop-color="white"/>
<stop offset="1" stop-color="white" stop-opacity="0"/>
</linearGradient>
<linearGradient id="paint26_linear_361_7478" x1="801.8" y1="683.335" x2="688.028" y2="620.54" gradientUnits="userSpaceOnUse">
<stop stop-color="white"/>
<stop offset="1" stop-color="white" stop-opacity="0"/>
</linearGradient>
<linearGradient id="paint27_linear_361_7478" x1="655.554" y1="815.427" x2="588.422" y2="704.159" gradientUnits="userSpaceOnUse">
<stop stop-color="white"/>
<stop offset="1" stop-color="white" stop-opacity="0"/>
</linearGradient>
<linearGradient id="paint28_linear_361_7478" x1="149.525" y1="655.762" x2="260.793" y2="588.63" gradientUnits="userSpaceOnUse">
<stop stop-color="white"/>
<stop offset="1" stop-color="white" stop-opacity="0"/>
</linearGradient>
<linearGradient id="paint29_linear_361_7478" x1="308.469" y1="149.331" x2="375.601" y2="260.599" gradientUnits="userSpaceOnUse">
<stop stop-color="white"/>
<stop offset="1" stop-color="white" stop-opacity="0"/>
</linearGradient>
<linearGradient id="paint30_linear_361_7478" x1="462.503" y1="873.76" x2="459.999" y2="743.833" gradientUnits="userSpaceOnUse">
<stop stop-color="white"/>
<stop offset="1" stop-color="white" stop-opacity="0"/>
</linearGradient>
<linearGradient id="paint31_linear_361_7478" x1="91.1871" y1="462.713" x2="221.114" y2="460.209" gradientUnits="userSpaceOnUse">
<stop stop-color="white"/>
<stop offset="1" stop-color="white" stop-opacity="0"/>
</linearGradient>
<linearGradient id="paint32_linear_361_7478" x1="501.52" y1="90.9979" x2="504.024" y2="220.925" gradientUnits="userSpaceOnUse">
<stop stop-color="white"/>
<stop offset="1" stop-color="white" stop-opacity="0"/>
</linearGradient>
<linearGradient id="paint33_linear_361_7478" x1="280.894" y1="801.607" x2="343.689" y2="687.836" gradientUnits="userSpaceOnUse">
<stop stop-color="white"/>
<stop offset="1" stop-color="white" stop-opacity="0"/>
</linearGradient>
<linearGradient id="paint34_linear_361_7478" x1="163.345" y1="281.096" x2="277.117" y2="343.891" gradientUnits="userSpaceOnUse">
<stop stop-color="white"/>
<stop offset="1" stop-color="white" stop-opacity="0"/>
</linearGradient>
<linearGradient id="paint35_linear_361_7478" x1="683.129" y1="163.147" x2="620.334" y2="276.919" gradientUnits="userSpaceOnUse">
<stop stop-color="white"/>
<stop offset="1" stop-color="white" stop-opacity="0"/>
</linearGradient>
</defs>
</svg>
