<svg width="265" height="165" viewBox="0 0 265 165" fill="none" xmlns="http://www.w3.org/2000/svg">
<path d="M36.9848 150.321C36.9848 154.198 35.4935 157.33 32.6601 159.567C29.6775 161.804 25.6511 162.997 20.2825 162.997C15.063 162.997 10.8875 161.804 7.9049 159.268C4.92234 156.882 3.13281 153.452 2.68542 149.128H9.99268C10.1418 151.663 11.0366 153.602 12.9752 155.093C14.9139 156.584 17.2999 157.181 20.4316 157.181C23.1159 157.181 25.2037 156.733 26.8441 155.689C28.4845 154.795 29.2302 153.303 29.2302 151.514C29.2302 149.873 28.6337 148.531 27.5898 147.786C26.5459 146.891 24.7563 146.294 22.2212 145.847L15.6595 144.654C11.9313 143.908 9.09792 142.715 7.15926 140.777C5.07147 138.838 4.1767 136.452 4.1767 133.469C4.1767 131.083 4.77321 128.995 6.11536 127.206C7.45751 125.416 9.24705 124.074 11.484 123.03C13.87 121.986 16.5543 121.539 19.5369 121.539C22.8177 121.539 25.6511 121.986 28.0371 123.179C30.4232 124.223 32.3618 125.715 33.8531 127.802C35.3444 129.741 36.09 132.127 36.3883 134.961H29.081C28.7828 132.575 27.888 130.785 26.2476 129.443C24.6072 128.101 22.3703 127.355 19.686 127.355C17.2999 127.355 15.3613 127.802 13.87 128.846C12.3787 129.89 11.6331 131.232 11.6331 132.873C11.6331 134.513 12.2296 135.706 13.2735 136.601C14.3174 137.496 16.1069 138.092 18.493 138.54L25.3528 139.733C29.3793 140.478 32.2127 141.671 34.1514 143.461C35.9409 145.25 36.9848 147.487 36.9848 150.321Z" fill="black"/>
<path d="M70.2389 145.698V122.136H77.8445L77.9936 162.102H70.8355V155.839C69.7916 157.926 68.3003 159.567 66.0634 160.909C63.8264 162.251 61.4404 162.997 58.607 162.997C55.9227 162.997 53.5366 162.549 51.4488 161.505C49.3611 160.462 47.7207 158.821 46.6768 156.584C45.4837 154.347 45.0364 151.514 44.8872 148.084L44.7381 122.285H52.3436L52.4927 146.444C52.4927 149.873 53.2384 152.409 54.8788 153.9C56.3701 155.391 58.4579 156.137 60.993 156.137C62.6334 156.137 64.2738 155.689 65.616 154.795C66.9581 153.9 68.1512 152.707 68.8968 151.067C69.7916 149.575 70.2389 147.786 70.2389 145.698Z" fill="black"/>
<path d="M96.04 162.102H88.4345L88.2853 122.136H95.4435V128.847C96.7856 126.461 98.5752 124.671 100.663 123.329C102.751 121.987 105.286 121.39 107.97 121.39C110.953 121.39 113.488 122.136 115.576 123.478C117.664 124.969 119.304 126.908 120.199 129.592C121.541 127.057 123.479 124.969 125.716 123.478C127.953 121.987 130.638 121.241 133.769 121.241C137.945 121.241 141.226 122.583 143.612 125.119C145.998 127.654 147.34 131.382 147.34 136.154L147.489 162.102H139.884V138.689C139.884 135.259 139.138 132.724 137.647 130.935C136.155 129.145 134.068 128.25 131.234 128.25C129.594 128.25 127.953 128.698 126.462 129.592C124.971 130.487 123.927 131.829 123.032 133.47C122.137 135.11 121.69 137.049 121.839 139.286V162.251H114.234V138.838C114.234 135.408 113.488 132.873 111.997 131.084C110.505 129.294 108.418 128.399 105.584 128.399C103.795 128.399 102.154 128.847 100.812 129.741C99.3208 130.636 98.2769 131.978 97.3821 133.619C96.4874 135.259 96.1891 137.198 96.1891 139.435L96.04 162.102Z" fill="black"/>
<path d="M173.885 162.549C170.008 162.549 166.578 161.655 163.744 160.014C160.911 158.225 158.525 155.839 157.033 152.707C155.393 149.575 154.647 145.847 154.647 141.671C154.647 137.645 155.393 134.215 157.033 131.083C158.674 127.952 160.911 125.566 163.744 123.776C166.578 121.987 169.858 121.092 173.587 121.092C176.569 121.092 179.253 121.688 181.64 122.732C184.026 123.925 186.113 125.417 187.754 127.504C189.394 129.592 190.736 131.978 191.482 134.662C192.228 137.347 192.526 140.478 192.078 143.61L158.972 143.759V138.689L184.026 138.54C183.876 134.812 182.833 131.978 180.894 129.89C178.955 127.803 176.42 126.759 173.438 126.759C171.201 126.759 169.262 127.355 167.472 128.548C165.832 129.741 164.49 131.382 163.595 133.619C162.7 135.855 162.253 138.54 162.253 141.522C162.253 144.654 162.7 147.338 163.595 149.575C164.49 151.812 165.832 153.602 167.472 154.795C169.113 155.988 171.201 156.584 173.736 156.584C176.569 156.584 178.955 155.839 180.894 154.347C182.833 152.856 184.026 150.768 184.622 148.233H192.228C191.333 152.707 189.245 156.137 185.964 158.672C182.683 161.356 178.657 162.549 173.885 162.549Z" fill="black"/>
<path d="M207.886 141.224V161.655H200.28L200.131 121.689H207.289V130.189C208.631 127.355 210.719 125.268 213.553 123.627C216.386 121.987 219.369 121.241 222.649 121.241V129.145C219.816 128.996 217.281 129.294 215.044 130.189C212.807 130.935 211.017 132.277 209.824 134.215C208.482 135.856 207.886 138.391 207.886 141.224Z" fill="black"/>
<path d="M253.817 145.101V121.539H261.423L261.572 161.505H254.414V155.242C253.37 157.33 251.879 158.97 249.642 160.312C247.405 161.654 245.019 162.4 242.186 162.4C239.501 162.4 237.115 161.953 235.027 160.909C232.94 159.865 231.299 158.224 230.255 155.988C229.062 153.751 228.466 150.917 228.466 147.487L228.317 121.688H235.922L236.071 145.847C236.071 149.277 236.817 151.812 238.457 153.303C239.949 154.795 242.036 155.54 244.572 155.54C246.212 155.54 247.852 155.093 249.195 154.198C250.537 153.303 251.73 152.11 252.475 150.47C253.37 148.979 253.817 147.189 253.817 145.101Z" fill="black"/>
<path d="M153.152 19.3867C153.152 19.3867 138.985 40.5629 152.556 55.923C166.127 71.2832 168.811 77.0992 158.67 99.9157C158.67 99.9157 180.145 84.1082 176.267 61.2916C173.136 42.6506 156.732 43.6945 153.152 19.3867Z" fill="#FFBB00"/>
<path d="M196.697 2.68408C196.697 2.68408 168.81 17.4477 178.205 42.6503C186.258 63.9756 192.074 69.4933 172.091 97.3802C172.091 97.3802 209.97 81.5727 205.496 51.598C202.812 29.6762 190.583 30.1236 196.697 2.68408Z" fill="#FFBB00"/>
<path d="M110.8 19.5356C110.8 19.5356 125.116 40.7118 111.546 56.0719C97.975 71.4321 95.4398 77.3972 105.73 100.065C105.73 100.065 84.2553 84.4062 87.8343 61.5897C90.8169 42.7996 107.37 43.8435 110.8 19.5356Z" fill="#FFBB00"/>
<path d="M67.1063 3.13184C67.1063 3.13184 95.1423 17.7464 85.8964 42.9489C77.9926 64.2742 72.1766 69.9411 92.458 97.5297C92.458 97.5297 54.5796 82.0204 58.7551 52.0457C61.1412 29.9748 73.3697 30.4222 67.1063 3.13184Z" fill="#FFBB00"/>
<path d="M132.125 105.732C161.354 105.583 164.188 79.1869 151.81 67.555C138.985 55.3265 131.976 41.7559 131.976 41.7559C131.976 41.7559 125.116 55.3265 112.291 67.555C99.9136 79.3361 102.896 105.732 132.125 105.732Z" fill="#FFBB00"/>
</svg>
