<svg width="265" height="166" viewBox="0 0 265 166" fill="none" xmlns="http://www.w3.org/2000/svg">
<path d="M36.9848 150.937C36.9848 154.814 35.4935 157.946 32.6601 160.183C29.6775 162.42 25.6511 163.613 20.2825 163.613C15.063 163.613 10.8875 162.42 7.9049 159.885C4.92234 157.499 3.13281 154.069 2.68542 149.744H9.99268C10.1418 152.279 11.0366 154.218 12.9752 155.709C14.9139 157.2 17.2999 157.797 20.4316 157.797C23.1159 157.797 25.2037 157.349 26.8441 156.306C28.4845 155.411 29.2302 153.919 29.2302 152.13C29.2302 150.49 28.6337 149.147 27.5898 148.402C26.5459 147.507 24.7563 146.91 22.2212 146.463L15.6595 145.27C11.9313 144.524 9.09792 143.331 7.15926 141.393C5.07147 139.454 4.1767 137.068 4.1767 134.085C4.1767 131.699 4.77321 129.612 6.11536 127.822C7.45751 126.033 9.24705 124.69 11.484 123.647C13.87 122.603 16.5543 122.155 19.5369 122.155C22.8177 122.155 25.6511 122.603 28.0371 123.796C30.4232 124.84 32.3618 126.331 33.8531 128.419C35.3444 130.357 36.09 132.743 36.3883 135.577H29.081C28.7828 133.191 27.888 131.401 26.2476 130.059C24.6072 128.717 22.3703 127.971 19.686 127.971C17.2999 127.971 15.3613 128.419 13.87 129.463C12.3787 130.506 11.6331 131.849 11.6331 133.489C11.6331 135.129 12.2296 136.322 13.2735 137.217C14.3174 138.112 16.1069 138.708 18.493 139.156L25.3528 140.349C29.3793 141.094 32.2127 142.288 34.1514 144.077C35.9409 145.867 36.9848 148.104 36.9848 150.937Z" fill="white"/>
<path d="M70.2389 146.314V122.752H77.8445L77.9936 162.718H70.8355V156.455C69.7916 158.543 68.3003 160.183 66.0634 161.525C63.8264 162.867 61.4404 163.613 58.607 163.613C55.9227 163.613 53.5366 163.166 51.4488 162.122C49.3611 161.078 47.7207 159.437 46.6768 157.2C45.4837 154.964 45.0364 152.13 44.8872 148.7L44.7381 122.901H52.3436L52.4927 147.06C52.4927 150.49 53.2384 153.025 54.8788 154.516C56.3701 156.007 58.4579 156.753 60.993 156.753C62.6334 156.753 64.2738 156.306 65.616 155.411C66.9581 154.516 68.1512 153.323 68.8968 151.683C69.7916 150.191 70.2389 148.402 70.2389 146.314Z" fill="white"/>
<path d="M96.04 162.718H88.4345L88.2853 122.752H95.4435V129.463C96.7856 127.077 98.5752 125.287 100.663 123.945C102.751 122.603 105.286 122.007 107.97 122.007C110.953 122.007 113.488 122.752 115.576 124.094C117.664 125.586 119.304 127.524 120.199 130.209C121.541 127.673 123.479 125.586 125.716 124.094C127.953 122.603 130.638 121.857 133.769 121.857C137.945 121.857 141.226 123.2 143.612 125.735C145.998 128.27 147.34 131.998 147.34 136.77L147.489 162.718H139.884V139.305C139.884 135.875 139.138 133.34 137.647 131.551C136.155 129.761 134.068 128.866 131.234 128.866C129.594 128.866 127.953 129.314 126.462 130.209C124.971 131.103 123.927 132.445 123.032 134.086C122.137 135.726 121.69 137.665 121.839 139.902V162.868H114.234V139.454C114.234 136.025 113.488 133.489 111.997 131.7C110.505 129.91 108.418 129.016 105.584 129.016C103.795 129.016 102.154 129.463 100.812 130.358C99.3208 131.252 98.2769 132.595 97.3821 134.235C96.4874 135.875 96.1891 137.814 96.1891 140.051L96.04 162.718Z" fill="white"/>
<path d="M173.885 163.166C170.008 163.166 166.578 162.271 163.744 160.63C160.911 158.841 158.525 156.455 157.033 153.323C155.393 150.191 154.647 146.463 154.647 142.288C154.647 138.261 155.393 134.831 157.033 131.7C158.674 128.568 160.911 126.182 163.744 124.392C166.578 122.603 169.858 121.708 173.587 121.708C176.569 121.708 179.253 122.305 181.64 123.348C184.026 124.541 186.113 126.033 187.754 128.121C189.394 130.208 190.736 132.594 191.482 135.279C192.228 137.963 192.526 141.095 192.078 144.226L158.972 144.375V139.305L184.026 139.156C183.876 135.428 182.833 132.594 180.894 130.507C178.955 128.419 176.42 127.375 173.438 127.375C171.201 127.375 169.262 127.971 167.472 129.164C165.832 130.357 164.49 131.998 163.595 134.235C162.7 136.472 162.253 139.156 162.253 142.139C162.253 145.27 162.7 147.954 163.595 150.191C164.49 152.428 165.832 154.218 167.472 155.411C169.113 156.604 171.201 157.2 173.736 157.2C176.569 157.2 178.955 156.455 180.894 154.963C182.833 153.472 184.026 151.384 184.622 148.849H192.228C191.333 153.323 189.245 156.753 185.964 159.288C182.683 161.973 178.657 163.166 173.885 163.166Z" fill="white"/>
<path d="M207.886 141.841V162.271H200.28L200.131 122.305H207.289V130.805C208.631 127.972 210.719 125.884 213.553 124.243C216.386 122.603 219.369 121.857 222.649 121.857V129.761C219.816 129.612 217.281 129.91 215.044 130.805C212.807 131.551 211.017 132.893 209.824 134.832C208.482 136.472 207.886 139.007 207.886 141.841Z" fill="white"/>
<path d="M253.817 145.717V122.155H261.423L261.572 162.122H254.414V155.858C253.37 157.946 251.879 159.586 249.642 160.928C247.405 162.271 245.019 163.016 242.186 163.016C239.501 163.016 237.115 162.569 235.027 161.525C232.94 160.481 231.299 158.841 230.255 156.604C229.062 154.367 228.466 151.533 228.466 148.104L228.317 122.304H235.922L236.071 146.463C236.071 149.893 236.817 152.428 238.457 153.919C239.949 155.411 242.036 156.156 244.572 156.156C246.212 156.156 247.852 155.709 249.195 154.814C250.537 153.919 251.73 152.726 252.475 151.086C253.37 149.595 253.817 147.805 253.817 145.717Z" fill="white"/>
<path d="M153.152 20.0029C153.152 20.0029 138.985 41.1791 152.556 56.5392C166.127 71.8994 168.811 77.7154 158.67 100.532C158.67 100.532 180.145 84.7244 176.267 61.9078C173.136 43.2669 156.732 44.3107 153.152 20.0029Z" fill="#FFBB00"/>
<path d="M196.697 3.30029C196.697 3.30029 168.81 18.0639 178.205 43.2665C186.258 64.5918 192.074 70.1095 172.091 97.9964C172.091 97.9964 209.97 82.1889 205.496 52.2142C202.812 30.2924 190.583 30.7398 196.697 3.30029Z" fill="#FFBB00"/>
<path d="M110.8 20.1519C110.8 20.1519 125.116 41.328 111.546 56.6881C97.975 72.0483 95.4398 78.0134 105.73 100.681C105.73 100.681 84.2553 85.0224 87.8343 62.2059C90.8169 43.4158 107.37 44.4597 110.8 20.1519Z" fill="#FFBB00"/>
<path d="M67.1063 3.74805C67.1063 3.74805 95.1423 18.3626 85.8964 43.5652C77.9926 64.8904 72.1766 70.5573 92.458 98.1459C92.458 98.1459 54.5796 82.6366 58.7551 52.662C61.1412 30.591 73.3697 31.0384 67.1063 3.74805Z" fill="#FFBB00"/>
<path d="M132.125 106.348C161.354 106.199 164.188 79.8031 151.81 68.1712C138.985 55.9427 131.976 42.3721 131.976 42.3721C131.976 42.3721 125.116 55.9427 112.291 68.1712C99.9136 79.9523 102.896 106.348 132.125 106.348Z" fill="#FFBB00"/>
</svg>
