<svg width="284" height="64" viewBox="0 0 284 64" fill="none" xmlns="http://www.w3.org/2000/svg">
<path d="M126.126 41.1774C126.126 43.841 125.101 45.9924 123.155 47.5291C121.106 49.0658 118.34 49.8853 114.652 49.8853C111.066 49.8853 108.198 49.0658 106.149 47.3242C104.1 45.685 102.87 43.3288 102.563 40.3578H107.583C107.685 42.0994 108.3 43.4312 109.632 44.4557C110.964 45.4801 112.603 45.8899 114.754 45.8899C116.598 45.8899 118.032 45.5826 119.159 44.8655C120.286 44.2508 120.799 43.2263 120.799 41.997C120.799 40.8701 120.389 39.948 119.672 39.4358C118.954 38.8211 117.725 38.4114 115.984 38.104L111.476 37.2844C108.915 36.7722 106.968 35.9526 105.636 34.6208C104.202 33.289 103.588 31.6499 103.588 29.601C103.588 27.9618 103.997 26.5276 104.919 25.2982C105.841 24.0689 107.071 23.1469 108.607 22.4297C110.247 21.7126 112.091 21.4053 114.14 21.4053C116.393 21.4053 118.34 21.7126 119.979 22.5322C121.618 23.2493 122.95 24.2738 123.974 25.708C124.999 27.0398 125.511 28.679 125.716 30.6254H120.696C120.491 28.9863 119.876 27.7569 118.75 26.8349C117.623 25.9129 116.086 25.4007 114.242 25.4007C112.603 25.4007 111.271 25.708 110.247 26.4251C109.222 27.1423 108.71 28.0643 108.71 29.1912C108.71 30.3181 109.12 31.1377 109.837 31.7523C110.554 32.367 111.783 32.7768 113.422 33.0841L118.135 33.9037C120.901 34.4159 122.847 35.2355 124.179 36.4649C125.409 37.6942 126.126 39.2309 126.126 41.1774Z" fill="black"/>
<path d="M149.222 38.0019V21.8154H154.446L154.549 49.271H149.631V44.9683C148.914 46.4025 147.89 47.5294 146.353 48.4515C144.816 49.3735 143.177 49.8857 141.231 49.8857C139.387 49.8857 137.748 49.5784 136.313 48.8612C134.879 48.1441 133.752 47.0172 133.035 45.4805C132.216 43.9438 131.908 41.9973 131.806 39.6411L131.703 21.9179H136.928L137.031 38.5142C137.031 40.8704 137.543 42.612 138.67 43.6365C139.694 44.6609 141.128 45.1732 142.87 45.1732C143.997 45.1732 145.124 44.8658 146.046 44.2512C146.968 43.6365 147.787 42.8169 148.3 41.69C148.914 40.6655 149.222 39.4362 149.222 38.0019Z" fill="black"/>
<path d="M167.198 49.271H161.973L161.87 21.8154H166.788V26.4254C167.71 24.7863 168.939 23.5569 170.373 22.6349C171.808 21.7129 173.549 21.3031 175.393 21.3031C177.442 21.3031 179.184 21.8154 180.618 22.7374C182.052 23.7618 183.179 25.0936 183.794 26.9377C184.716 25.1961 186.048 23.7618 187.584 22.7374C189.121 21.7129 190.965 21.2007 193.116 21.2007C195.985 21.2007 198.239 22.1227 199.878 23.8643C201.517 25.6059 202.439 28.167 202.439 31.4453L202.542 49.271H197.317V33.1869C197.317 30.8306 196.805 29.089 195.78 27.8597C194.756 26.6303 193.321 26.0157 191.375 26.0157C190.248 26.0157 189.121 26.323 188.097 26.9377C187.072 27.5524 186.355 28.4744 185.74 29.6013C185.126 30.7282 184.818 32.06 184.921 33.5967V49.3734H179.696V33.2893C179.696 30.9331 179.184 29.1915 178.159 27.9621C177.135 26.7328 175.701 26.1181 173.754 26.1181C172.525 26.1181 171.398 26.4254 170.476 27.0401C169.451 27.6548 168.734 28.5768 168.12 29.7037C167.505 30.8306 167.3 32.1624 167.3 33.6991L167.198 49.271Z" fill="black"/>
<path d="M220.926 49.5782C218.262 49.5782 215.906 48.9635 213.96 47.8366C212.013 46.6073 210.374 44.9681 209.35 42.8168C208.223 40.6654 207.71 38.1042 207.71 35.2357C207.71 32.4697 208.223 30.1134 209.35 27.962C210.477 25.8107 212.013 24.1715 213.96 22.9422C215.906 21.7128 218.16 21.0981 220.721 21.0981C222.77 21.0981 224.614 21.5079 226.253 22.2251C227.892 23.0446 229.327 24.0691 230.454 25.5033C231.58 26.9376 232.502 28.5767 233.015 30.4208C233.527 32.2648 233.732 34.4162 233.424 36.5675L210.681 36.67V33.1868L227.892 33.0844C227.79 30.5232 227.073 28.5767 225.741 27.1425C224.409 25.7082 222.668 24.9911 220.619 24.9911C219.082 24.9911 217.75 25.4009 216.521 26.2205C215.394 27.04 214.472 28.1669 213.857 29.7036C213.243 31.2403 212.935 33.0844 212.935 35.1333C212.935 37.2847 213.243 39.1287 213.857 40.6654C214.472 42.2021 215.394 43.4314 216.521 44.251C217.648 45.0706 219.082 45.4804 220.824 45.4804C222.77 45.4804 224.409 44.9681 225.741 43.9437C227.073 42.9192 227.892 41.485 228.302 39.7434H233.527C232.912 42.8168 231.478 45.173 229.224 46.9146C226.97 48.7586 224.204 49.5782 220.926 49.5782Z" fill="black"/>
<path d="M243.781 34.9285V48.9636H238.556L238.454 21.508H243.371V27.3475C244.293 25.401 245.727 23.9667 247.674 22.8398C249.62 21.7129 251.669 21.2007 253.923 21.2007V26.6303C251.977 26.5279 250.235 26.7328 248.698 27.3475C247.162 27.8597 245.932 28.7817 245.113 30.1135C244.191 31.2404 243.781 32.982 243.781 34.9285Z" fill="black"/>
<path d="M275.335 37.5918V21.4053H280.559L280.662 48.8609H275.744V44.5581C275.027 45.9924 274.003 47.1193 272.466 48.0413C270.929 48.9633 269.29 49.4756 267.344 49.4756C265.5 49.4756 263.861 49.1682 262.426 48.4511C260.992 47.734 259.865 46.6071 259.148 45.0704C258.329 43.5337 257.919 41.5872 257.919 39.2309L257.816 21.5077H263.041L263.144 38.104C263.144 40.4603 263.656 42.2019 264.783 43.2263C265.807 44.2508 267.241 44.763 268.983 44.763C270.11 44.763 271.237 44.4557 272.159 43.841C273.081 43.2263 273.9 42.4068 274.413 41.2799C275.027 40.2554 275.335 39.026 275.335 37.5918Z" fill="black"/>
<path d="M45.1513 24.9067C46.0291 26.3726 46.7339 27.5358 47.4215 28.7033C49.6225 32.4481 52.5154 35.5962 55.6116 38.6231C61.2633 44.1495 61.4882 51.6001 56.3423 56.8151C49.4928 63.7555 35.3526 61.775 31.491 53.2952C29.437 48.7807 30.0381 44.5214 32.9742 40.5387C34.7774 38.0912 37.2941 36.3399 39.1925 33.9919C41.3978 31.259 43.0972 28.1888 45.1513 24.9023V24.9067Z" fill="#FFBB00"/>
<path d="M8.86782 3.15918C17.352 8.47798 23.2372 18.0172 18.139 28.7845C16.8201 31.5693 15.7909 34.4882 15.3498 37.5714C14.6666 42.3194 16.1239 46.4879 18.7746 50.3451C20.0935 52.2651 21.3648 54.2153 22.4762 56.2953C13.7715 51.7462 5.97059 46.3971 3.9555 35.833C3.09065 31.3012 3.80847 26.843 5.81924 22.8344C8.98457 16.521 10.5283 10.1169 8.89376 3.12891L8.86782 3.15485V3.15918Z" fill="#FFBB00"/>
<path d="M68.655 56.2176C69.3772 54.315 70.6312 52.7193 71.8377 51.1453C76.8365 44.5984 76.9057 37.6667 73.6884 30.428C72.5469 27.8594 71.4917 25.2821 71.228 22.4498C70.4712 14.3548 74.7911 8.86303 80.6072 4.13665C81.0526 3.77774 81.5369 3.4664 82.0083 3.13776C82.0602 3.10316 82.1466 3.11614 82.3715 3.08154C81.5758 6.68362 81.2688 10.2554 81.9434 13.8921C82.4537 16.625 83.6817 19.0466 84.806 21.5244C87.059 26.4756 88.1054 31.5998 86.9076 37.0224C85.3639 44.0147 80.7456 48.7238 75.1457 52.6329C73.122 54.0469 71.1717 55.7031 68.6205 56.1917L68.6507 56.2176H68.655Z" fill="#FFBB00"/>
<path d="M33.2736 12.3491C38.6962 20.4397 38.5751 28.7509 32.4779 34.3897C26.4672 39.9463 25.6197 46.4846 28.8153 53.8055C29.3083 54.9341 30.1385 56.0108 29.918 57.6195C25.5462 53.1006 21.836 48.4218 20.5214 42.2944C19.2112 36.1843 21.3257 30.9649 25.5246 26.7877C29.5115 22.8181 32.6509 18.5976 33.2779 12.3491H33.2736Z" fill="#FFBB00"/>
<path d="M56.9865 12.4097C57.3757 13.9794 57.6265 15.095 57.9292 16.1934C58.8459 19.5144 60.4762 22.403 63.0361 24.7683C66.5301 27.9985 69.2976 31.6871 70.0543 36.5605C71.01 42.7138 68.4933 47.7818 64.9993 52.5125C63.715 54.2509 62.3875 55.9892 60.1216 57.6411C61.0989 55.0725 61.8729 53.1266 62.5778 51.1547C64.6404 45.3819 63.4383 40.275 59.3216 35.8254C57.0254 33.3476 54.5779 30.9995 53.7347 27.5401C52.4201 22.1392 53.9942 17.3696 56.9822 12.414L56.9865 12.4097Z" fill="#FFBB00"/>
</svg>
